<svg xmlns="http://www.w3.org/2000/svg" xmlns:xlink="http://www.w3.org/1999/xlink" width="344" height="160" viewBox="0 0 344 160"><defs><clipPath id="b"><rect width="344" height="160"/></clipPath></defs><g id="a" clip-path="url(#b)"><g transform="translate(-24.078 1.266)"><text transform="translate(196 72)" fill="#007bff" font-size="55" font-family="Nunito-Black, Nunito" font-weight="800"><tspan x="0" y="0">Ninja</tspan><tspan fill="#a4afc1"><tspan x="0" y="50">House</tspan></tspan></text><g transform="translate(32.078 4.734)"><g transform="translate(4.607 4.608)"><circle cx="69.113" cy="69.113" r="69.113" fill="#f3f3f1"/><g transform="translate(5.289 24.572)"><path d="M135.258,36.861c-34.907,34.815-92.741,34.815-127.647,0C42.518,2.046,100.352,2.046,135.258,36.861Z" transform="translate(-7.611 -10.75)" fill="#20c997"/></g><g transform="translate(36.86 43.004)"><circle cx="7.679" cy="7.679" r="7.679" fill="#f3f3f1"/></g><g transform="translate(86.007 43.004)"><circle cx="7.679" cy="7.679" r="7.679" fill="#f3f3f1"/></g></g><g transform="translate(4.607 4.608)"><path d="M20.573,75.863A69.113,69.113,0,0,1,82.774,7.1c-2.273-.227-4.577-.35-6.911-.35a69.113,69.113,0,0,0,0,138.226c2.334,0,4.638-.123,6.911-.35A69.114,69.114,0,0,1,20.573,75.863Z" transform="translate(-6.75 -6.75)" fill="#d5dbe1"/><g transform="translate(5.289 24.639)"><path d="M21.434,36.8A89.755,89.755,0,0,1,78.346,11.021,90.351,90.351,0,0,0,7.611,36.8,90.351,90.351,0,0,0,78.346,62.588,89.755,89.755,0,0,1,21.434,36.8Z" transform="translate(-7.611 -10.761)" fill="#00b871"/></g></g><g transform="translate(0)"><path d="M79.721,153.441a73.721,73.721,0,1,1,73.721-73.721A73.8,73.8,0,0,1,79.721,153.441Zm0-138.226a64.506,64.506,0,1,0,64.506,64.506A64.576,64.576,0,0,0,79.721,15.215Z" transform="translate(-6 -6)" fill="#007bff"/><g transform="translate(36.86 43.004)"><path d="M24.287,37.574A12.287,12.287,0,1,1,36.574,25.287,12.3,12.3,0,0,1,24.287,37.574Zm0-15.358a3.072,3.072,0,1,0,3.072,3.072A3.073,3.073,0,0,0,24.287,22.215Z" transform="translate(-12 -13)" fill="#007bff"/></g><g transform="translate(86.007 43.004)"><path d="M32.287,37.574A12.287,12.287,0,1,1,44.574,25.287,12.3,12.3,0,0,1,32.287,37.574Zm0-15.358a3.072,3.072,0,1,0,3.072,3.072A3.073,3.073,0,0,0,32.287,22.215Z" transform="translate(-20 -13)" fill="#007bff"/></g><g transform="translate(5.289 24.365)"><path d="M75.292,71.818A94.684,94.684,0,0,1,8.219,44.16a4.613,4.613,0,0,1-.006-6.53,95.153,95.153,0,0,1,134.153,0,4.613,4.613,0,0,1,0,6.524A94.691,94.691,0,0,1,75.292,71.818Zm-57.1-30.926c31.976,28.389,82.229,28.389,114.206,0C100.419,12.5,50.166,12.5,18.189,40.892Z" transform="translate(-6.861 -9.966)" fill="#007bff"/></g></g></g></g></g></svg>