<svg xmlns="http://www.w3.org/2000/svg" viewBox="0 0 500 500"><g id="freepik--background-complete--inject-40"><rect y="382.4" width="500" height="0.25" style="fill:#ebebeb"></rect><rect x="300.71" y="391.07" width="33.12" height="0.25" style="fill:#ebebeb"></rect><rect x="395.2" y="399.15" width="8.69" height="0.25" style="fill:#ebebeb"></rect><rect x="335.59" y="395.4" width="19.19" height="0.25" style="fill:#ebebeb"></rect><rect x="52.46" y="390.89" width="43.19" height="0.25" style="fill:#ebebeb"></rect><rect x="244.67" y="390.89" width="6.33" height="0.25" style="fill:#ebebeb"></rect><rect x="141.69" y="395.24" width="45.31" height="0.25" style="fill:#ebebeb"></rect><path d="M237,337.8H43.91a5.71,5.71,0,0,1-5.7-5.71V60.66A5.71,5.71,0,0,1,43.91,55H237a5.71,5.71,0,0,1,5.71,5.71V332.09A5.71,5.71,0,0,1,237,337.8ZM43.91,55.2a5.46,5.46,0,0,0-5.45,5.46V332.09a5.46,5.46,0,0,0,5.45,5.46H237a5.47,5.47,0,0,0,5.46-5.46V60.66A5.47,5.47,0,0,0,237,55.2Z" style="fill:#ebebeb"></path><path d="M453.31,337.8H260.21a5.72,5.72,0,0,1-5.71-5.71V60.66A5.72,5.72,0,0,1,260.21,55h193.1A5.71,5.71,0,0,1,459,60.66V332.09A5.71,5.71,0,0,1,453.31,337.8ZM260.21,55.2a5.47,5.47,0,0,0-5.46,5.46V332.09a5.47,5.47,0,0,0,5.46,5.46h193.1a5.47,5.47,0,0,0,5.46-5.46V60.66a5.47,5.47,0,0,0-5.46-5.46Z" style="fill:#ebebeb"></path><rect x="277.61" y="92.31" width="156.16" height="119.84" transform="translate(711.38 304.47) rotate(180)" style="fill:#ebebeb"></rect><rect x="433.77" y="92.31" width="3.01" height="119.84" style="fill:#e6e6e6"></rect><rect x="301.38" y="79.77" width="108.62" height="144.93" transform="translate(507.92 -203.46) rotate(90)" style="fill:#fafafa"></rect><rect x="283.22" y="97.93" width="3.01" height="108.62" style="fill:#e6e6e6"></rect><polygon points="410.13 206.54 383.59 97.93 367.01 97.93 393.56 206.54 410.13 206.54" style="fill:#fff"></polygon><polygon points="389.04 206.54 362.5 97.93 352.25 97.93 378.79 206.54 389.04 206.54" style="fill:#fff"></polygon><polygon points="334.03 206.54 307.49 97.93 297.24 97.93 323.78 206.54 334.03 206.54" style="fill:#fff"></polygon><path d="M439.71,94.18V270.29a6,6,0,0,1-6,6H423.4a6,6,0,0,1-6-5.94c-.14-9.78.43-83.38,6.46-97a6,6,0,0,0-.23-5.25c-9.7-18-22.4-43.58-24-73.7a6,6,0,0,1,6-6.3h28.07A6,6,0,0,1,439.71,94.18Z" style="fill:#f5f5f5;opacity:0.5"></path><path d="M425.35,173.09H439a2.25,2.25,0,0,0,2.25-2.24h0A2.25,2.25,0,0,0,439,168.6H425.35a2.25,2.25,0,0,0-2.24,2.25h0A2.25,2.25,0,0,0,425.35,173.09Z" style="fill:#e0e0e0"></path><path d="M273.81,94.18V270.29a6,6,0,0,0,6,6h10.29a6,6,0,0,0,6-5.94c.14-9.78-.42-83.38-6.45-97a6,6,0,0,1,.23-5.25c9.69-18,22.4-43.58,24-73.7a6,6,0,0,0-6-6.3H279.84A6,6,0,0,0,273.81,94.18Z" style="fill:#f5f5f5;opacity:0.5"></path><path d="M288.17,173.09H274.51a2.25,2.25,0,0,1-2.25-2.24h0a2.25,2.25,0,0,1,2.25-2.25h13.66a2.25,2.25,0,0,1,2.24,2.25h0A2.25,2.25,0,0,1,288.17,173.09Z" style="fill:#e0e0e0"></path><rect x="62.54" y="92.31" width="156.16" height="119.84" transform="translate(281.25 304.47) rotate(180)" style="fill:#ebebeb"></rect><rect x="218.7" y="92.31" width="3.01" height="119.84" style="fill:#e6e6e6"></rect><rect x="86.31" y="79.77" width="108.62" height="144.93" transform="translate(292.86 11.61) rotate(90)" style="fill:#fafafa"></rect><rect x="68.16" y="97.93" width="3.01" height="108.62" style="fill:#e6e6e6"></rect><polygon points="195.06 206.54 168.52 97.93 151.94 97.93 178.49 206.54 195.06 206.54" style="fill:#fff"></polygon><polygon points="173.97 206.54 147.43 97.93 137.18 97.93 163.72 206.54 173.97 206.54" style="fill:#fff"></polygon><polygon points="118.96 206.54 92.42 97.93 82.17 97.93 108.71 206.54 118.96 206.54" style="fill:#fff"></polygon><path d="M224.64,94.18V270.29a6,6,0,0,1-6,6H208.33a6,6,0,0,1-6-5.94c-.15-9.78.42-83.38,6.45-97a6,6,0,0,0-.23-5.25c-9.7-18-22.4-43.58-24-73.7a6,6,0,0,1,6-6.3h28.06A6,6,0,0,1,224.64,94.18Z" style="fill:#f5f5f5;opacity:0.5"></path><path d="M210.29,173.09H224a2.25,2.25,0,0,0,2.24-2.24h0A2.25,2.25,0,0,0,224,168.6H210.29a2.25,2.25,0,0,0-2.25,2.25h0A2.25,2.25,0,0,0,210.29,173.09Z" style="fill:#e0e0e0"></path><path d="M58.74,94.18V270.29a6,6,0,0,0,6,6H75.06a6,6,0,0,0,6-5.94c.14-9.78-.42-83.38-6.45-97a6,6,0,0,1,.23-5.25c9.7-18,22.4-43.58,24-73.7a6,6,0,0,0-6-6.3H64.78A6,6,0,0,0,58.74,94.18Z" style="fill:#f5f5f5;opacity:0.5"></path><path d="M73.1,173.09H59.44a2.25,2.25,0,0,1-2.24-2.24h0a2.25,2.25,0,0,1,2.24-2.25H73.1a2.25,2.25,0,0,1,2.25,2.25h0A2.25,2.25,0,0,1,73.1,173.09Z" style="fill:#e0e0e0"></path><path d="M378.81,241.09a22.25,22.25,0,0,1-44.49,0Z" style="fill:#e0e0e0"></path><path d="M344.37,246.19a17.15,17.15,0,0,1-34.29,0Z" style="fill:#ebebeb"></path><rect x="218.14" y="263.33" width="211.16" height="22.45" transform="translate(647.44 549.12) rotate(180)" style="fill:#ebebeb"></rect><rect x="220.68" y="265.64" width="77.68" height="17.84" transform="translate(519.05 549.12) rotate(180)" style="fill:#f5f5f5"></rect><rect x="301.13" y="265.64" width="77.68" height="17.84" transform="translate(679.94 549.12) rotate(180)" style="fill:#f5f5f5"></rect><polygon points="386.44 382.4 391.11 382.4 381.14 285.78 376.48 285.78 386.44 382.4" style="fill:#f5f5f5"></polygon><polygon points="427.52 382.4 432.18 382.4 422.21 285.78 417.55 285.78 427.52 382.4" style="fill:#f5f5f5"></polygon><polygon points="261 382.4 256.33 382.4 266.3 285.78 270.97 285.78 261 382.4" style="fill:#f5f5f5"></polygon><polygon points="219.93 382.4 215.26 382.4 225.23 285.78 229.9 285.78 219.93 382.4" style="fill:#f5f5f5"></polygon><path d="M168,306.9h21.21a0,0,0,0,1,0,0v70.64a4.87,4.87,0,0,1-4.87,4.87H168a0,0,0,0,1,0,0V306.9A0,0,0,0,1,168,306.9Z" style="fill:#ebebeb"></path><path d="M86.24,306.9h76.85a4.87,4.87,0,0,1,4.87,4.87V382.4a0,0,0,0,1,0,0H86.24a0,0,0,0,1,0,0V306.9A0,0,0,0,1,86.24,306.9Z" transform="translate(254.2 689.29) rotate(180)" style="fill:#f5f5f5"></path><rect x="83.17" y="297.33" width="109.08" height="22.71" rx="5.09" style="fill:#e6e6e6"></rect></g><g id="freepik--Shadow--inject-40"><ellipse id="freepik--path--inject-40" cx="250" cy="416.24" rx="193.89" ry="11.32" style="fill:#f5f5f5"></ellipse></g><g id="freepik--Character--inject-40"><polygon points="336.86 400.01 328.7 401.2 323.62 382.73 331.77 381.54 336.86 400.01" style="fill:#ffc3bd"></polygon><polygon points="370.58 407.84 362.35 407.84 360.02 388.79 368.25 388.79 370.58 407.84" style="fill:#ffc3bd"></polygon><path d="M361.27,406.89h10a.73.73,0,0,1,.71.56l1.7,7.31a1.2,1.2,0,0,1-1.19,1.46c-3.23-.05-5.59-.24-9.65-.24-2.5,0-10,.26-13.49.26s-3.94-3.42-2.53-3.73c6.33-1.38,11.08-3.29,13.09-5.12A2,2,0,0,1,361.27,406.89Z" style="fill:#263238"></path><path d="M328.08,398.94l8.15-3.84a.74.74,0,0,1,.88.21l4.64,5.88a1.18,1.18,0,0,1-.44,1.82c-3,1.33-7.29,3.16-11,4.9a78.07,78.07,0,0,1-9.73,4c-3.18,1.16-5.25-1.72-4-2.49,5.58-3.51,6.44-3.58,10-9A3.84,3.84,0,0,1,328.08,398.94Z" style="fill:#263238"></path><polygon points="323.62 382.74 326.24 392.26 334.4 391.07 331.78 381.55 323.62 382.74" style="opacity:0.2"></polygon><polygon points="368.25 388.79 360.02 388.79 361.23 398.61 369.45 398.61 368.25 388.79" style="opacity:0.2"></polygon><path d="M322.89,390.83l13.81-2s-10.16-50.86-7.81-76.37c.72-7.75,2.15-15,4.7-26.54,3.23-14.56,7.28-30.29,10.6-42.6,3.5-13,6.17-22.16,6.17-22.16l-28.86-2.23s-13.25,66-14,91.09C306.63,336.08,322.89,390.83,322.89,390.83Z" style="fill:#007BFF"></path><path d="M322.89,390.83l13.81-2s-10.16-50.86-7.81-76.37c.72-7.75,2.15-15,4.7-26.54,3.23-14.56,7.28-30.29,10.6-42.6,3.5-13,6.17-22.16,6.17-22.16l-28.86-2.23s-13.25,66-14,91.09C306.63,336.08,322.89,390.83,322.89,390.83Z" style="opacity:0.30000000000000004"></path><path d="M333.59,285.9c3.23-14.56,7.28-30.29,10.6-42.6l-3-6.48C334,245.27,332.17,271.58,333.59,285.9Z" style="opacity:0.2"></path><path d="M337.07,220.11s3.27,70.45,6.8,94.33c3.86,26.15,13.53,82.27,13.53,82.27h15.07s-5.85-69.7-7.17-83.38c-2.82-29.23.1-91,.1-91Z" style="fill:#007BFF"></path><path d="M337.07,220.11s3.27,70.45,6.8,94.33c3.86,26.15,13.53,82.27,13.53,82.27h15.07s-5.85-69.7-7.17-83.38c-2.82-29.23.1-91,.1-91Z" style="opacity:0.30000000000000004"></path><polygon points="355.6 397.04 373.35 397.04 373.29 391.74 353.46 391.39 355.6 397.04" style="fill:#263238"></polygon><polygon points="321.2 391.4 337.67 389 336.85 383.71 318.4 386.12 321.2 391.4" style="fill:#263238"></polygon><path d="M358.57,408.32a2.47,2.47,0,0,1-1.59-.42,1.15,1.15,0,0,1-.41-1,.61.61,0,0,1,.32-.55c.91-.47,3.58,1.17,3.88,1.35a.2.2,0,0,1,.09.2.19.19,0,0,1-.14.16A9.56,9.56,0,0,1,358.57,408.32Zm-1.24-1.7a.58.58,0,0,0-.25.05c-.06,0-.12.08-.12.23a.8.8,0,0,0,.27.71c.45.37,1.53.42,2.92.14A8,8,0,0,0,357.33,406.62Z" style="fill:#007BFF"></path><path d="M360.67,408a.15.15,0,0,1-.09,0c-.86-.46-2.52-2.27-2.36-3.18a.62.62,0,0,1,.62-.51,1,1,0,0,1,.83.25c1,.78,1.19,3.15,1.19,3.25a.18.18,0,0,1-.08.18A.2.2,0,0,1,360.67,408ZM359,404.7h-.09c-.25,0-.27.15-.28.2-.1.54,1,1.9,1.81,2.55a4.67,4.67,0,0,0-1-2.58A.67.67,0,0,0,359,404.7Z" style="fill:#007BFF"></path><path d="M327.84,400.3l0,0c-1.09.81-3.09,2.1-4.25,1.77a1.1,1.1,0,0,1-.74-.7.61.61,0,0,1,.07-.6c.66-.94,4.39-.83,4.81-.82a.22.22,0,0,1,.18.14A.19.19,0,0,1,327.84,400.3Zm-4.57.66,0,.05a.23.23,0,0,0,0,.24.74.74,0,0,0,.49.47c.65.18,1.91-.32,3.43-1.37C325.66,400.35,323.74,400.5,323.27,401Z" style="fill:#007BFF"></path><path d="M327.84,400.3a.18.18,0,0,1-.13.06c-1.1,0-3.65-.74-3.92-1.64-.06-.21,0-.52.43-.8a1.45,1.45,0,0,1,1.12-.16c1.32.33,2.48,2.23,2.53,2.31a.17.17,0,0,1,0,.19S327.85,400.29,327.84,400.3Zm-3.58-1.92c-.13.12-.1.2-.09.24.16.54,2,1.22,3.16,1.34a4.61,4.61,0,0,0-2.08-1.82,1,1,0,0,0-.83.12A.55.55,0,0,0,324.26,398.38Z" style="fill:#007BFF"></path><path d="M332.6,159.81q-3,6.19-6.25,12.33l-6.42,12.2c-1,2-2.14,4-3.12,6a17.69,17.69,0,0,1-2.86,4.15,11.9,11.9,0,0,1-5.17,3.25,11.58,11.58,0,0,1-3.1.46,12.9,12.9,0,0,1-2.79-.35,14.76,14.76,0,0,1-4.39-1.93,19.93,19.93,0,0,1-3.27-2.61c-.49-.47-.94-1-1.37-1.46s-.81-1-1.29-1.62l4.41-4.33,1.29.7c.45.24.91.47,1.36.68a17,17,0,0,0,2.63,1,6,6,0,0,0,2.16.28c.58,0,.86-.2.95-.38s.21-.31.42-.72a16.73,16.73,0,0,0,.74-1.75c.91-2.24,1.82-4.39,2.78-6.54q2.85-6.4,5.89-12.66c1-2.09,2-4.18,3.1-6.24s2.1-4.14,3.21-6.19Z" style="fill:#ffc3bd"></path><path d="M336.14,154.42c2.27,7.55-13.21,28.08-13.21,28.08l-15.81-10.18a99.33,99.33,0,0,1,10.78-18.47C324.3,145.65,333.65,146.13,336.14,154.42Z" style="fill:#263238"></path><path d="M326,164.75c-4,1.83-8.28,8.61-8.91,14l5.86,3.77a124.76,124.76,0,0,0,9.92-15.68C331.64,164.9,330.58,162.66,326,164.75Z" style="opacity:0.2"></path><path d="M372.79,151.2a183.77,183.77,0,0,0-5.17,27c-.76,6.37-1.22,12.45-1.49,18-.66,12.93-.35,22.79-.73,26.12l-43.9-3.39c-6.08-46.84,5.28-70.86,5.28-70.86a86.32,86.32,0,0,1,10.5-1.22c.74,0,1.5-.06,2.27-.07a162,162,0,0,1,18.66,1.44c1.18.15,2.37.33,3.52.53C367.61,149.73,372.79,151.2,372.79,151.2Z" style="fill:#263238"></path><path d="M343.3,152.79s2.95,1.77,4,7.47c3.55-1.51,12.8-7.82,12.87-12.31a16.69,16.69,0,0,0-2.84-2.35A50,50,0,0,1,343.3,152.79Z" style="fill:#fff"></path><path d="M343.3,152.79a11.2,11.2,0,0,0-7.39,5.47c-3.57-1.52.61-10.77,3.2-11.84a7.44,7.44,0,0,1,3.57-1S339.49,151.49,343.3,152.79Z" style="fill:#fff"></path><path d="M368,149.25,360.7,147a1,1,0,0,0-1.25.57c-1.78,4.06-10,21.88-21.64,31.66a33.73,33.73,0,0,1,.78-32,.49.49,0,0,0-.47-.74l-9.66.85a1,1,0,0,0-.93.88c-4,26.55-8.58,40.36-8.58,40.36,0,10.62.71,22.8.76,34a1.18,1.18,0,0,0,1.18,1.18H366a1.19,1.19,0,0,0,1.19-1.14l1.33-32.56s-13.17-19.6.11-39.21A1,1,0,0,0,368,149.25Z" style="fill:#007BFF"></path><path d="M337.07,224a.25.25,0,0,1-.25-.22,188.11,188.11,0,0,1,.75-44.57.25.25,0,0,1,.29-.21.26.26,0,0,1,.2.29,187.88,187.88,0,0,0-.74,44.43.26.26,0,0,1-.23.28Z" style="opacity:0.2"></path><g style="opacity:0.2"><path d="M366.71,148.85l-4.86-1.48c-9.94,19.51-13.25,44.33-9.84,73.8.13,1.13.26,2.29.26,2.58h5c0-.56-.09-1.37-.3-3.15C353.64,191.72,356.91,167.58,366.71,148.85Z" style="fill:#fff"></path><path d="M330.38,147.18c-6.25,19.92-8.16,44.73-5.69,73.8.11,1.3.21,2.43.21,2.77h5c0-.53-.07-1.41-.23-3.2-2.5-29.4-.44-54.23,6.12-73.84Z" style="fill:#fff"></path></g><path d="M357.78,127.06c-1.58,5.91-3.5,16.81.43,21.14a18.54,18.54,0,0,1-14.77,4.61c-5.16-.52-5.18-4.14-3.89-6.05,6.8-1.08,7-6.06,6.11-10.81Z" style="fill:#ffc3bd"></path><path d="M352.84,130.69l-7.17,5.25a18.52,18.52,0,0,1,.35,3.36c2.59-.17,6.29-2.71,6.74-5.36A8.81,8.81,0,0,0,352.84,130.69Z" style="opacity:0.2"></path><path d="M351.64,120.67c-10.05-3-16.78-9.77-17.78-16.42,1.24,1.2,7.63,1.58,7.63,1.58,4-1.84,12-.47,13.07,3.4C360.43,108,360.4,121.78,351.64,120.67Z" style="fill:#263238"></path><path d="M359.11,118.09c-1.05,8.08-1.25,12.87-5.64,16.73-6.6,5.79-16.39,1.29-17.78-7-1.25-7.44.67-19.41,8.85-22A11.26,11.26,0,0,1,359.11,118.09Z" style="fill:#ffc3bd"></path><path d="M349.87,109.67c.71,4.16,2.94,11.61,8.11,14,9.22-3,10.89-11.28,4.61-13.16S349.25,106,349.87,109.67Z" style="fill:#263238"></path><path d="M356.57,117.61c-10-3.22-17.66-8.89-17.49-16.72,1.22,1.22,4.55,2.11,4.55,2.11,2-2.51,21.43-2.83,20.36,9.75C367.45,113,365.31,118.87,356.57,117.61Z" style="fill:#263238"></path><path d="M361.67,111.51s2.3-3.4,6.78.26A38.63,38.63,0,0,0,361.67,111.51Z" style="fill:#263238"></path><path d="M362,111.22s3.3.47,3.56-4.23A32.89,32.89,0,0,1,362,111.22Z" style="fill:#263238"></path><path d="M361.78,125.07a7.62,7.62,0,0,1-4.12,4.22c-2.5,1-4.11-1.13-3.7-3.68.36-2.29,2.1-5.58,4.75-5.54A3.51,3.51,0,0,1,361.78,125.07Z" style="fill:#ffc3bd"></path><path d="M346.62,119.4c0,.66-.43,1.17-.86,1.14s-.75-.6-.71-1.26.43-1.17.87-1.14S346.67,118.74,346.62,119.4Z" style="fill:#263238"></path><path d="M339.14,118.82c-.05.66-.43,1.17-.87,1.14s-.74-.6-.7-1.26.43-1.17.86-1.14S339.18,118.16,339.14,118.82Z" style="fill:#263238"></path><path d="M341.49,119.34a22.82,22.82,0,0,1-3.58,5.2,3.91,3.91,0,0,0,3.11.78Z" style="fill:#ed847e"></path><path d="M345,129.89a5,5,0,0,1-.86,0,.19.19,0,1,1,0-.38,5.23,5.23,0,0,0,4.42-1.72.19.19,0,0,1,.27,0,.22.22,0,0,1,0,.28A5.44,5.44,0,0,1,345,129.89Z" style="fill:#263238"></path><path d="M349.09,117.17a.42.42,0,0,1-.35-.18,3.15,3.15,0,0,0-2.4-1.49.41.41,0,0,1-.4-.39.39.39,0,0,1,.39-.39,3.89,3.89,0,0,1,3.06,1.85.39.39,0,0,1-.11.54A.6.6,0,0,1,349.09,117.17Z" style="fill:#263238"></path><path d="M336.09,116a.42.42,0,0,1-.22,0,.4.4,0,0,1-.15-.54,3.88,3.88,0,0,1,2.94-2,.41.41,0,0,1,.42.37.38.38,0,0,1-.37.41,3,3,0,0,0-2.31,1.59A.39.39,0,0,1,336.09,116Z" style="fill:#263238"></path><path d="M297.31,185.9l-6.74-5-1.77,9.13s6.28,4.08,8.25.76Z" style="fill:#ffc3bd"></path><polygon points="282.29 180.17 283.44 188.54 288.8 190.05 290.57 180.92 282.29 180.17" style="fill:#ffc3bd"></polygon><path d="M376.85,156.69c1.69,2.35,3.12,4.62,4.59,7s2.83,4.76,4.14,7.24,2.52,5,3.64,7.72a47,47,0,0,1,2.71,8.79,19.8,19.8,0,0,1,.3,5.64,12.55,12.55,0,0,1-.92,3.64,10.56,10.56,0,0,1-1.12,2,2.86,2.86,0,0,1-.28.36l-.25.28-.49.56a17.07,17.07,0,0,1-4.57,3.43,19.76,19.76,0,0,1-4.89,1.8,29.42,29.42,0,0,1-9.31.55A39.15,39.15,0,0,1,366,205a35.34,35.34,0,0,1-4.28-1.19l1.25-6.05c4.79-.07,10-.6,13.75-2.22a12.61,12.61,0,0,0,2.43-1.38,7.5,7.5,0,0,0,1.58-1.62l.14-.22.07-.11s0-.08,0,0-.12.18-.16.21,0,0,0-.25a11.08,11.08,0,0,0-.37-2.3,36.9,36.9,0,0,0-2.38-6.34c-1-2.2-2.19-4.42-3.42-6.63s-2.55-4.4-3.88-6.59-2.78-4.39-4.11-6.43Z" style="fill:#ffc3bd"></path><path d="M372.79,151.2c7.53,2.33,16.74,24,16.74,24l-18.32,8.45a67.22,67.22,0,0,1-7.06-16.81C363.25,163.48,366.2,149.17,372.79,151.2Z" style="fill:#263238"></path><rect x="281.89" y="183.47" width="74.13" height="62.62" transform="translate(30.49 -39.48) rotate(7.44)" style="fill:#263238"></rect><rect x="282.11" y="180.09" width="21.98" height="62.62" transform="translate(29.83 -36.16) rotate(7.44)" style="opacity:0.1"></rect><path d="M364.82,198.54l-6.54-5.17-2.42,10.27s6.54,3.15,8.58-.16Z" style="fill:#ffc3bd"></path><polygon points="351.44 193.33 349.84 201.92 355.86 203.64 358.28 193.37 351.44 193.33" style="fill:#ffc3bd"></polygon></g><g id="freepik--Blocks--inject-40"><rect x="194.19" y="341.29" width="88.71" height="74.94" style="fill:#007BFF"></rect><rect x="194.19" y="341.29" width="26.3" height="74.94" style="opacity:0.1"></rect><rect x="142.82" y="191.41" width="88.71" height="74.94" style="fill:#007BFF"></rect><rect x="142.82" y="191.41" width="37.21" height="74.94" style="opacity:0.1"></rect><rect x="95.65" y="266.35" width="88.71" height="149.89" transform="translate(280.01 682.59) rotate(180)" style="fill:#007BFF"></rect><path d="M163,313.66c2.8,21.25,15.05,26.83,21.32,53.47V289.92C171.34,276.4,160.23,292.4,163,313.66Z" style="fill:#fff;opacity:0.1"></path><path d="M133.21,284.93a14.71,14.71,0,0,1-6.69,17.17c-5.84,3.31-12.49.16-17.11-5.5s-1.79-14.19,4-17.51S131.23,277.9,133.21,284.93Z" style="fill:#fff;opacity:0.1"></path><path d="M105.32,382c-8.26-24.95,2.05-57.51,21.54-63.14S154.32,329,158.06,338c15.88,14.48,21.58,52.41,0,62.35C151.26,409.94,113.58,406.94,105.32,382Z" style="fill:#fff;opacity:0.1"></path><rect x="95.65" y="266.35" width="62.41" height="149.89" style="opacity:0.1"></rect><rect x="215.58" y="266.35" width="74.94" height="74.94" style="fill:#007BFF"></rect><rect x="215.58" y="266.35" width="74.94" height="74.94" style="fill:#fff;opacity:0.4"></rect><circle cx="144.35" cy="241.75" r="24.6" transform="translate(-128.66 172.88) rotate(-45)" style="fill:#007BFF"></circle><circle cx="144.35" cy="241.75" r="24.6" transform="translate(-128.66 172.88) rotate(-45)" style="opacity:0.4"></circle></g></svg>